bw_sq_140_01
version=1
nRows=9
nColumns=46
inDegrees=yes
endheader
time	ground_force3_vx	ground_force3_vy	ground_force3_vz	ground_force3_px	ground_force3_py	ground_force3_pz	ground_torque3_x	ground_torque3_y	ground_torque3_z	ground_force5_vx	ground_force5_vy	ground_force5_vz	ground_force5_px	ground_force5_py	ground_force5_pz	ground_torque5_x	ground_torque5_y	ground_torque5_z	ground_force4_vx	ground_force4_vy	ground_force4_vz	ground_force4_px	ground_force4_py	ground_force4_pz	ground_torque4_x	ground_torque4_y	ground_torque4_z	ground_force1_vx	ground_force1_vy	ground_force1_vz	ground_force1_px	ground_force1_py	ground_force1_pz	ground_torque1_x	ground_torque1_y	ground_torque1_z	ground_force2_vx	ground_force2_vy	ground_force2_vz	ground_force2_px	ground_force2_py	ground_force2_pz	ground_torque2_x	ground_torque2_y	ground_torque2_z
1.141000	-0.000000	-0.000000	0.000000	0.200000	0.000000	-0.300000	0.000000	0.000000	-0.000000	-4.736811	327.918304	100.413269	0.226098	0.000000	-1.562258	0.000007	0.600996	0.000003	3.121516	272.816620	-100.089828	0.189030	0.000000	-0.821795	-0.000002	-0.586934	-0.000001	-0.000000	-0.000000	0.000000	0.200000	0.000000	0.904000	0.000000	0.000000	-0.000000	-0.000000	-0.000000	0.000000	0.400000	0.000000	0.302000	0.000000	0.000000	-0.000000	
1.142000	-0.000000	-0.000000	0.000000	0.200000	0.000000	-0.300000	0.000000	0.000000	-0.000000	-4.575598	329.515442	100.894867	0.226615	0.000000	-1.561327	0.000036	0.432656	0.000004	2.636844	273.133820	-99.608231	0.189063	0.000000	-0.823419	0.000020	-0.647426	0.000002	-0.000000	-0.000000	0.000000	0.200000	0.000000	0.904000	0.000000	0.000000	-0.000000	-0.000000	-0.000000	0.000000	0.400000	0.000000	0.302000	0.000000	0.000000	-0.000000	
1.143000	-0.000000	-0.000000	0.000000	0.200000	0.000000	-0.300000	0.000000	0.000000	-0.000000	-4.897005	329.195190	101.858414	0.226223	0.000000	-1.561818	-0.000007	0.326415	0.000006	2.962018	270.901978	-99.444633	0.187568	0.000000	-0.821594	0.000010	-0.601630	0.000005	-0.000000	-0.000000	0.000000	0.200000	0.000000	0.904000	0.000000	0.000000	-0.000000	-0.000000	-0.000000	0.000000	0.400000	0.000000	0.302000	0.000000	0.000000	-0.000000	
1.144000	-0.000000	-0.000000	0.000000	0.200000	0.000000	-0.300000	0.000000	0.000000	-0.000000	-4.576108	330.789978	101.376129	0.226043	0.000000	-1.561424	0.000001	0.446277	0.000006	2.471168	272.176514	-99.445663	0.188618	0.000000	-0.821959	0.000009	-0.803243	-0.000000	-0.000000	-0.000000	0.000000	0.200000	0.000000	0.904000	0.000000	0.000000	-0.000000	-0.000000	-0.000000	0.000000	0.400000	0.000000	0.302000	0.000000	0.000000	-0.000000	
1.145000	-0.000000	-0.000000	0.000000	0.200000	0.000000	-0.300000	0.000000	0.000000	-0.000000	-5.059237	329.832642	101.698563	0.225699	0.000000	-1.561373	0.000012	0.648458	-0.000001	2.797887	273.137878	-98.962013	0.189119	0.000000	-0.821919	0.000007	-0.572596	0.000005	-0.000000	-0.000000	0.000000	0.200000	0.000000	0.904000	0.000000	0.000000	-0.000000	-0.000000	-0.000000	0.000000	0.400000	0.000000	0.302000	0.000000	0.000000	-0.000000	
1.146000	-0.000000	-0.000000	0.000000	0.200000	0.000000	-0.300000	0.000000	0.000000	-0.000000	-5.059237	329.514740	101.537346	0.226064	0.000000	-1.561626	0.000036	0.558925	0.000005	3.443602	271.854950	-99.927261	0.188905	0.000000	-0.822174	0.000010	-0.579483	0.000001	-0.000000	-0.000000	0.000000	0.200000	0.000000	0.904000	0.000000	0.000000	-0.000000	-0.000000	-0.000000	0.000000	0.400000	0.000000	0.302000	0.000000	0.000000	-0.000000	
1.147000	-0.000000	-0.000000	0.000000	0.200000	0.000000	-0.300000	0.000000	0.000000	-0.000000	-4.737321	330.471069	101.698219	0.225468	0.000000	-1.561268	0.000006	0.614270	0.000004	2.149083	273.454407	-99.445663	0.189435	0.000000	-0.821405	0.000012	-0.682157	-0.000001	-0.000000	-0.000000	0.000000	0.200000	0.000000	0.904000	0.000000	0.000000	-0.000000	-0.000000	-0.000000	0.000000	0.400000	0.000000	0.302000	0.000000	0.000000	-0.000000	
1.148000	-0.000000	-0.000000	0.000000	0.200000	0.000000	-0.300000	0.000000	0.000000	-0.000000	-3.772081	331.747650	102.180496	0.226410	0.000000	-1.562053	0.000044	0.536843	0.000003	1.825454	274.408691	-99.606186	0.190332	0.000000	-0.822852	0.000008	-0.604315	0.000005	-0.000000	-0.000000	0.000000	0.200000	0.000000	0.904000	0.000000	0.000000	-0.000000	-0.000000	-0.000000	0.000000	0.400000	0.000000	0.302000	0.000000	0.000000	-0.000000	
1.149000	-0.000000	-0.000000	0.000000	0.200000	0.000000	-0.300000	0.000000	0.000000	-0.000000	-4.093488	329.195190	102.501236	0.225879	0.000000	-1.561737	0.000031	0.458798	0.000004	1.825454	273.767883	-100.411919	0.190303	0.000000	-0.823265	0.000011	-0.635401	0.000003	-0.000000	-0.000000	0.000000	0.200000	0.000000	0.904000	0.000000	0.000000	-0.000000	-0.000000	-0.000000	0.000000	0.400000	0.000000	0.302000	0.000000	0.000000	-0.000000	
